<mxfile host="app.diagrams.net" modified="2023-05-27T16:37:31.462Z" agent="Mozilla/5.0 (Windows NT 10.0; Win64; x64) AppleWebKit/537.36 (KHTML, like Gecko) Chrome/113.0.0.0 Safari/537.36" etag="-qlwpZAq9At-nz85VjqW" version="21.3.4" type="google">
  <diagram name="PÃ¡gina-1" id="KfZCLV6-aeQy6WmvXWy_">
    <mxGraphModel grid="1" page="1" gridSize="10" guides="1" tooltips="1" connect="1" arrows="1" fold="1" pageScale="1" pageWidth="827" pageHeight="1169" math="0" shadow="0">
      <root>
        <mxCell id="0" />
        <mxCell id="1" parent="0" />
        <mxCell id="1UttL7cNontDi-Vua2wI-1" value="Logic" style="swimlane;whiteSpace=wrap;html=1;shadow=1;" vertex="1" parent="1">
          <mxGeometry x="130" y="10" width="1540" height="400" as="geometry">
            <mxRectangle x="80" y="20" width="70" height="30" as="alternateBounds" />
          </mxGeometry>
        </mxCell>
        <mxCell id="1UttL7cNontDi-Vua2wI-2" value="Logic" style="rounded=1;whiteSpace=wrap;html=1;" vertex="1" parent="1UttL7cNontDi-Vua2wI-1">
          <mxGeometry x="20" y="51" width="120" height="40" as="geometry" />
        </mxCell>
        <mxCell id="1UttL7cNontDi-Vua2wI-16" style="edgeStyle=orthogonalEdgeStyle;rounded=0;orthogonalLoop=1;jettySize=auto;html=1;exitX=1;exitY=0.5;exitDx=0;exitDy=0;entryX=0;entryY=0.5;entryDx=0;entryDy=0;" edge="1" parent="1UttL7cNontDi-Vua2wI-1" source="1UttL7cNontDi-Vua2wI-10" target="1UttL7cNontDi-Vua2wI-12">
          <mxGeometry relative="1" as="geometry" />
        </mxCell>
        <mxCell id="1UttL7cNontDi-Vua2wI-17" style="edgeStyle=orthogonalEdgeStyle;rounded=0;orthogonalLoop=1;jettySize=auto;html=1;exitX=1;exitY=0.5;exitDx=0;exitDy=0;entryX=0;entryY=0.5;entryDx=0;entryDy=0;" edge="1" parent="1UttL7cNontDi-Vua2wI-1" source="1UttL7cNontDi-Vua2wI-10" target="1UttL7cNontDi-Vua2wI-13">
          <mxGeometry relative="1" as="geometry" />
        </mxCell>
        <mxCell id="1UttL7cNontDi-Vua2wI-18" style="edgeStyle=orthogonalEdgeStyle;rounded=0;orthogonalLoop=1;jettySize=auto;html=1;exitX=1;exitY=0.5;exitDx=0;exitDy=0;entryX=0;entryY=0.5;entryDx=0;entryDy=0;" edge="1" parent="1UttL7cNontDi-Vua2wI-1" source="1UttL7cNontDi-Vua2wI-10" target="1UttL7cNontDi-Vua2wI-14">
          <mxGeometry relative="1" as="geometry" />
        </mxCell>
        <mxCell id="1UttL7cNontDi-Vua2wI-19" style="edgeStyle=orthogonalEdgeStyle;rounded=0;orthogonalLoop=1;jettySize=auto;html=1;exitX=1;exitY=0.5;exitDx=0;exitDy=0;entryX=0;entryY=0.5;entryDx=0;entryDy=0;" edge="1" parent="1UttL7cNontDi-Vua2wI-1" source="1UttL7cNontDi-Vua2wI-10" target="1UttL7cNontDi-Vua2wI-15">
          <mxGeometry relative="1" as="geometry" />
        </mxCell>
        <mxCell id="1UttL7cNontDi-Vua2wI-10" value="Scene" style="rounded=1;whiteSpace=wrap;html=1;" vertex="1" parent="1UttL7cNontDi-Vua2wI-1">
          <mxGeometry x="20" y="129" width="120" height="40" as="geometry" />
        </mxCell>
        <mxCell id="1UttL7cNontDi-Vua2wI-12" value="StartScene" style="rounded=1;whiteSpace=wrap;html=1;" vertex="1" parent="1UttL7cNontDi-Vua2wI-1">
          <mxGeometry x="180" y="50" width="120" height="40" as="geometry" />
        </mxCell>
        <mxCell id="1UttL7cNontDi-Vua2wI-13" value="LevelSelectScene" style="rounded=1;whiteSpace=wrap;html=1;" vertex="1" parent="1UttL7cNontDi-Vua2wI-1">
          <mxGeometry x="180" y="120" width="120" height="40" as="geometry" />
        </mxCell>
        <mxCell id="1UttL7cNontDi-Vua2wI-14" value="GameScene" style="rounded=1;whiteSpace=wrap;html=1;" vertex="1" parent="1UttL7cNontDi-Vua2wI-1">
          <mxGeometry x="180" y="190" width="120" height="40" as="geometry" />
        </mxCell>
        <mxCell id="1UttL7cNontDi-Vua2wI-15" value="WinScene" style="rounded=1;whiteSpace=wrap;html=1;" vertex="1" parent="1UttL7cNontDi-Vua2wI-1">
          <mxGeometry x="180" y="260" width="120" height="40" as="geometry" />
        </mxCell>
        <mxCell id="1UttL7cNontDi-Vua2wI-22" style="edgeStyle=orthogonalEdgeStyle;rounded=0;orthogonalLoop=1;jettySize=auto;html=1;exitX=1;exitY=0.5;exitDx=0;exitDy=0;entryX=0.25;entryY=1;entryDx=0;entryDy=0;" edge="1" parent="1UttL7cNontDi-Vua2wI-1" target="1UttL7cNontDi-Vua2wI-21">
          <mxGeometry relative="1" as="geometry">
            <mxPoint x="1151" y="140" as="sourcePoint" />
          </mxGeometry>
        </mxCell>
        <mxCell id="1UttL7cNontDi-Vua2wI-24" style="edgeStyle=orthogonalEdgeStyle;rounded=0;orthogonalLoop=1;jettySize=auto;html=1;exitX=1;exitY=0.5;exitDx=0;exitDy=0;entryX=0.5;entryY=0;entryDx=0;entryDy=0;" edge="1" parent="1UttL7cNontDi-Vua2wI-1" target="1UttL7cNontDi-Vua2wI-23">
          <mxGeometry relative="1" as="geometry">
            <mxPoint x="1151" y="140" as="sourcePoint" />
          </mxGeometry>
        </mxCell>
        <mxCell id="1UttL7cNontDi-Vua2wI-20" value="Button" style="rounded=1;whiteSpace=wrap;html=1;" vertex="1" parent="1UttL7cNontDi-Vua2wI-1">
          <mxGeometry x="1030" y="121" width="120" height="40" as="geometry" />
        </mxCell>
        <mxCell id="1UttL7cNontDi-Vua2wI-21" value="CheckSolution" style="rounded=1;whiteSpace=wrap;html=1;" vertex="1" parent="1UttL7cNontDi-Vua2wI-1">
          <mxGeometry x="1181" y="50" width="120" height="40" as="geometry" />
        </mxCell>
        <mxCell id="1UttL7cNontDi-Vua2wI-28" style="edgeStyle=orthogonalEdgeStyle;rounded=0;orthogonalLoop=1;jettySize=auto;html=1;exitX=1;exitY=0.5;exitDx=0;exitDy=0;entryX=0;entryY=0.5;entryDx=0;entryDy=0;" edge="1" parent="1UttL7cNontDi-Vua2wI-1" source="1UttL7cNontDi-Vua2wI-23" target="1UttL7cNontDi-Vua2wI-27">
          <mxGeometry relative="1" as="geometry" />
        </mxCell>
        <mxCell id="1UttL7cNontDi-Vua2wI-29" style="edgeStyle=orthogonalEdgeStyle;rounded=0;orthogonalLoop=1;jettySize=auto;html=1;exitX=1;exitY=0.5;exitDx=0;exitDy=0;entryX=0;entryY=0.5;entryDx=0;entryDy=0;" edge="1" parent="1UttL7cNontDi-Vua2wI-1" source="1UttL7cNontDi-Vua2wI-23" target="1UttL7cNontDi-Vua2wI-25">
          <mxGeometry relative="1" as="geometry" />
        </mxCell>
        <mxCell id="1UttL7cNontDi-Vua2wI-30" style="edgeStyle=orthogonalEdgeStyle;rounded=0;orthogonalLoop=1;jettySize=auto;html=1;exitX=1;exitY=0.5;exitDx=0;exitDy=0;entryX=0;entryY=0.5;entryDx=0;entryDy=0;" edge="1" parent="1UttL7cNontDi-Vua2wI-1" source="1UttL7cNontDi-Vua2wI-23" target="1UttL7cNontDi-Vua2wI-26">
          <mxGeometry relative="1" as="geometry" />
        </mxCell>
        <mxCell id="1UttL7cNontDi-Vua2wI-23" value="GoToSceneButton" style="rounded=1;whiteSpace=wrap;html=1;" vertex="1" parent="1UttL7cNontDi-Vua2wI-1">
          <mxGeometry x="1180" y="180" width="120" height="40" as="geometry" />
        </mxCell>
        <mxCell id="1UttL7cNontDi-Vua2wI-25" value="GoToLevelSelectButton" style="rounded=1;whiteSpace=wrap;html=1;" vertex="1" parent="1UttL7cNontDi-Vua2wI-1">
          <mxGeometry x="1340" y="103" width="130" height="40" as="geometry" />
        </mxCell>
        <mxCell id="1UttL7cNontDi-Vua2wI-26" value="GoToStartSceneButton" style="rounded=1;whiteSpace=wrap;html=1;" vertex="1" parent="1UttL7cNontDi-Vua2wI-1">
          <mxGeometry x="1342" y="157" width="130" height="40" as="geometry" />
        </mxCell>
        <mxCell id="1UttL7cNontDi-Vua2wI-27" value="CreateLevelButton" style="rounded=1;whiteSpace=wrap;html=1;" vertex="1" parent="1UttL7cNontDi-Vua2wI-1">
          <mxGeometry x="1341" y="210" width="130" height="40" as="geometry" />
        </mxCell>
        <mxCell id="1UttL7cNontDi-Vua2wI-34" style="edgeStyle=orthogonalEdgeStyle;rounded=0;orthogonalLoop=1;jettySize=auto;html=1;exitX=0.5;exitY=1;exitDx=0;exitDy=0;entryX=0.5;entryY=0;entryDx=0;entryDy=0;" edge="1" parent="1UttL7cNontDi-Vua2wI-1" source="1UttL7cNontDi-Vua2wI-32" target="1UttL7cNontDi-Vua2wI-20">
          <mxGeometry relative="1" as="geometry" />
        </mxCell>
        <mxCell id="1UttL7cNontDi-Vua2wI-35" style="edgeStyle=orthogonalEdgeStyle;rounded=0;orthogonalLoop=1;jettySize=auto;html=1;exitX=0.5;exitY=1;exitDx=0;exitDy=0;entryX=0.5;entryY=0;entryDx=0;entryDy=0;" edge="1" parent="1UttL7cNontDi-Vua2wI-1" source="1UttL7cNontDi-Vua2wI-32" target="1UttL7cNontDi-Vua2wI-33">
          <mxGeometry relative="1" as="geometry" />
        </mxCell>
        <mxCell id="1UttL7cNontDi-Vua2wI-40" style="edgeStyle=orthogonalEdgeStyle;rounded=0;orthogonalLoop=1;jettySize=auto;html=1;exitX=0;exitY=0.5;exitDx=0;exitDy=0;entryX=1;entryY=0.25;entryDx=0;entryDy=0;" edge="1" parent="1UttL7cNontDi-Vua2wI-1" source="1UttL7cNontDi-Vua2wI-32" target="1UttL7cNontDi-Vua2wI-36">
          <mxGeometry relative="1" as="geometry" />
        </mxCell>
        <mxCell id="1UttL7cNontDi-Vua2wI-43" style="edgeStyle=orthogonalEdgeStyle;rounded=0;orthogonalLoop=1;jettySize=auto;html=1;exitX=0.5;exitY=1;exitDx=0;exitDy=0;" edge="1" parent="1UttL7cNontDi-Vua2wI-1" source="1UttL7cNontDi-Vua2wI-32" target="1UttL7cNontDi-Vua2wI-38">
          <mxGeometry relative="1" as="geometry" />
        </mxCell>
        <mxCell id="1UttL7cNontDi-Vua2wI-44" style="edgeStyle=orthogonalEdgeStyle;rounded=0;orthogonalLoop=1;jettySize=auto;html=1;exitX=0.5;exitY=1;exitDx=0;exitDy=0;" edge="1" parent="1UttL7cNontDi-Vua2wI-1" source="1UttL7cNontDi-Vua2wI-32" target="1UttL7cNontDi-Vua2wI-41">
          <mxGeometry relative="1" as="geometry" />
        </mxCell>
        <mxCell id="1UttL7cNontDi-Vua2wI-46" style="edgeStyle=orthogonalEdgeStyle;rounded=0;orthogonalLoop=1;jettySize=auto;html=1;exitX=0.5;exitY=1;exitDx=0;exitDy=0;" edge="1" parent="1UttL7cNontDi-Vua2wI-1" source="1UttL7cNontDi-Vua2wI-32" target="1UttL7cNontDi-Vua2wI-45">
          <mxGeometry relative="1" as="geometry" />
        </mxCell>
        <mxCell id="1UttL7cNontDi-Vua2wI-48" style="edgeStyle=orthogonalEdgeStyle;rounded=0;orthogonalLoop=1;jettySize=auto;html=1;exitX=0.5;exitY=1;exitDx=0;exitDy=0;entryX=0.5;entryY=0;entryDx=0;entryDy=0;" edge="1" parent="1UttL7cNontDi-Vua2wI-1" source="1UttL7cNontDi-Vua2wI-32" target="1UttL7cNontDi-Vua2wI-47">
          <mxGeometry relative="1" as="geometry" />
        </mxCell>
        <mxCell id="1UttL7cNontDi-Vua2wI-54" style="edgeStyle=orthogonalEdgeStyle;rounded=0;orthogonalLoop=1;jettySize=auto;html=1;exitX=0.5;exitY=1;exitDx=0;exitDy=0;entryX=0.5;entryY=0;entryDx=0;entryDy=0;" edge="1" parent="1UttL7cNontDi-Vua2wI-1" target="1UttL7cNontDi-Vua2wI-52">
          <mxGeometry relative="1" as="geometry">
            <mxPoint x="544" y="96" as="sourcePoint" />
            <mxPoint x="999.9999999999995" y="293" as="targetPoint" />
          </mxGeometry>
        </mxCell>
        <mxCell id="1UttL7cNontDi-Vua2wI-32" value="GameObject" style="rounded=1;whiteSpace=wrap;html=1;" vertex="1" parent="1UttL7cNontDi-Vua2wI-1">
          <mxGeometry x="484" y="30" width="120" height="40" as="geometry" />
        </mxCell>
        <mxCell id="1UttL7cNontDi-Vua2wI-33" value="Text" style="rounded=1;whiteSpace=wrap;html=1;" vertex="1" parent="1UttL7cNontDi-Vua2wI-1">
          <mxGeometry x="324" y="121" width="120" height="40" as="geometry" />
        </mxCell>
        <mxCell id="1UttL7cNontDi-Vua2wI-36" value="Image" style="rounded=1;whiteSpace=wrap;html=1;" vertex="1" parent="1UttL7cNontDi-Vua2wI-1">
          <mxGeometry x="330" y="40" width="120" height="40" as="geometry" />
        </mxCell>
        <mxCell id="1UttL7cNontDi-Vua2wI-38" value="Table" style="rounded=1;whiteSpace=wrap;html=1;" vertex="1" parent="1UttL7cNontDi-Vua2wI-1">
          <mxGeometry x="460" y="121" width="120" height="40" as="geometry" />
        </mxCell>
        <mxCell id="1UttL7cNontDi-Vua2wI-41" value="TableSolution" style="rounded=1;whiteSpace=wrap;html=1;" vertex="1" parent="1UttL7cNontDi-Vua2wI-1">
          <mxGeometry x="590" y="122" width="120" height="40" as="geometry" />
        </mxCell>
        <mxCell id="1UttL7cNontDi-Vua2wI-45" value="Cell" style="rounded=1;whiteSpace=wrap;html=1;" vertex="1" parent="1UttL7cNontDi-Vua2wI-1">
          <mxGeometry x="720" y="122" width="120" height="40" as="geometry" />
        </mxCell>
        <mxCell id="1UttL7cNontDi-Vua2wI-47" value="Empty" style="rounded=1;whiteSpace=wrap;html=1;" vertex="1" parent="1UttL7cNontDi-Vua2wI-1">
          <mxGeometry x="850" y="122" width="120" height="40" as="geometry" />
        </mxCell>
        <mxCell id="1UttL7cNontDi-Vua2wI-50" value="State" style="rounded=1;whiteSpace=wrap;html=1;" vertex="1" parent="1UttL7cNontDi-Vua2wI-1">
          <mxGeometry x="330" y="290" width="120" height="30" as="geometry" />
        </mxCell>
        <mxCell id="1UttL7cNontDi-Vua2wI-51" value="Vector2D" style="rounded=1;whiteSpace=wrap;html=1;" vertex="1" parent="1UttL7cNontDi-Vua2wI-1">
          <mxGeometry x="470" y="290" width="120" height="30" as="geometry" />
        </mxCell>
        <mxCell id="1UttL7cNontDi-Vua2wI-52" value="BackgroundColor" style="rounded=1;whiteSpace=wrap;html=1;" vertex="1" parent="1UttL7cNontDi-Vua2wI-1">
          <mxGeometry x="940" y="179" width="120" height="40" as="geometry" />
        </mxCell>
        <mxCell id="1UttL7cNontDi-Vua2wI-3" value="" style="endArrow=classic;html=1;rounded=0;entryX=0;entryY=0.5;entryDx=0;entryDy=0;" edge="1" parent="1" target="1UttL7cNontDi-Vua2wI-2">
          <mxGeometry width="50" height="50" relative="1" as="geometry">
            <mxPoint x="10" y="80" as="sourcePoint" />
            <mxPoint x="440" y="230" as="targetPoint" />
          </mxGeometry>
        </mxCell>
        <mxCell id="1UttL7cNontDi-Vua2wI-4" value="ILogic" style="rounded=1;whiteSpace=wrap;html=1;" vertex="1" parent="1">
          <mxGeometry x="-110" y="60" width="120" height="40" as="geometry" />
        </mxCell>
        <mxCell id="1UttL7cNontDi-Vua2wI-7" value="Engine" style="swimlane;whiteSpace=wrap;html=1;fillColor=#f5f5f5;fontColor=#333333;strokeColor=#666666;shadow=1;" vertex="1" parent="1">
          <mxGeometry x="-124.5" y="20" width="149" height="200" as="geometry">
            <mxRectangle x="80" y="20" width="70" height="30" as="alternateBounds" />
          </mxGeometry>
        </mxCell>
        <mxCell id="1UttL7cNontDi-Vua2wI-9" value="IScene" style="rounded=1;whiteSpace=wrap;html=1;" vertex="1" parent="1UttL7cNontDi-Vua2wI-7">
          <mxGeometry x="14.5" y="120" width="120" height="40" as="geometry" />
        </mxCell>
        <mxCell id="1UttL7cNontDi-Vua2wI-11" style="edgeStyle=orthogonalEdgeStyle;rounded=0;orthogonalLoop=1;jettySize=auto;html=1;exitX=1;exitY=0.5;exitDx=0;exitDy=0;entryX=0;entryY=0.5;entryDx=0;entryDy=0;" edge="1" parent="1" source="1UttL7cNontDi-Vua2wI-9" target="1UttL7cNontDi-Vua2wI-10">
          <mxGeometry relative="1" as="geometry" />
        </mxCell>
      </root>
    </mxGraphModel>
  </diagram>
</mxfile>
